# xmcd
#
# Track frame offsets:
# 150
# 16220
# 33142
# 63531
# 89516
# 117232
# 129647
# 150534
# 172581
# 188888
# 223176
# 238791
# 260230
# 281491
#
# Disc length: 3944 seconds
#
# Revision: 2
# Processed by: cddbd v1.5.1PL2 Copyright (c) Steve Scherf et al.
# Submitted via: Audio-CD-Archiv 4.00.530
#
DISCID=c30f660e
DTITLE=Steppin Out - Tomorrow Today
DYEAR=2003
DGENRE=blues
TTITLE0=Steppin Out - Meet me in the Sky
TTITLE1=Steppin Out - Nobody Else Like You
TTITLE2=Steppin Out - Down to it
TTITLE3=Steppin Out - Last Goodbye
TTITLE4=Steppin Out - What Kinda Land is this
TTITLE5=Steppin Out - How much do You love me
TTITLE6=Steppin Out - I Thought it was You
TTITLE7=Steppin Out - Darling Miss nowhere
TTITLE8=Steppin Out - Your Mama is Your Mama
TTITLE9=Steppin Out - Somebody's Got to Go
TTITLE10=Steppin Out - Tomorrow Today
TTITLE11=Steppin Out - It's Alright
TTITLE12=Steppin Out - Steppin Out Shoes
TTITLE13=Steppin Out - My Friend
EXTD=
EXTT0=
EXTT1=
EXTT2=
EXTT3=
EXTT4=
EXTT5=
EXTT6=
EXTT7=
EXTT8=
EXTT9=
EXTT10=
EXTT11=
EXTT12=
EXTT13=
PLAYORDER=
